ffmpeg started on 2026-01-16 at 16:07:54
Report written to "D:\Convert\FFMetrics\reports\psnr_report-6.txt"
Log level: 32
Command line:
ffmpeg -hide_banner -nostdin -r 24000/1001 -i "F:\\Convert\\files\\[DC] Make Heroine ga Oosugiru - 07_Telegram_HEVC(HB-10).mkv" -r 24000/1001 -i "F:\\Convert\\files\\[DC] Make Heroine ga Oosugiru - 07_Telegram.mp4" -lavfi "[0:v]settb=AVTB,setpts=PTS-STARTPTS,format=pix_fmts=yuv420p10le,fps=24000/1001,scale=1920:1080:flags=lanczos:param0=3:out_range=limited:out_color_matrix=bt709:out_chroma_loc=left,setsar=1/1,setdar=(1920/1080)*(1/1),colorspace=format=yuv420p10:range=tv:primaries=bt709:trc=bt709:space=bt709:fast=0[main];[1:v]settb=AVTB,setpts=PTS-STARTPTS,format=pix_fmts=yuv420p,fps=24000/1001,scale=1920:1080:flags=lanczos:param0=3:out_range=limited:out_color_matrix=bt709:out_chroma_loc=left,setsar=1.000,setdar=1.778,colorspace=format=yuv420p:range=tv:primaries=bt709:trc=bt709:space=bt709:fast=0[ref];[main][ref]psnr=eof_action=endall:stats_file='D\\:/Convert/FFMetrics/logs/psnr_logfile-6.txt'" -f null -
Input #0, matroska,webm, from 'F:\Convert\files\[DC] Make Heroine ga Oosugiru - 07_Telegram_HEVC(HB-10).mkv':
  Metadata:
    creation_time   : 2026-01-16T09:19:31.000000Z
    ENCODER         : Lavf61.7.100
  Duration: 00:24:06.81, start: -0.021000, bitrate: 1090 kb/s
  Stream #0:0: Video: hevc (Main 10), yuv420p10le(tv, bt709), 1920x1080 [SAR 1:1 DAR 16:9], 23.98 fps, 23.98 tbr, 1k tbn (default)
      Metadata:
        BPS             : 893080
        DURATION        : 00:24:06.569708333
        NUMBER_OF_FRAMES: 34683
        NUMBER_OF_BYTES : 161487836
        _STATISTICS_WRITING_APP: mkvpropedit v94.0 ('Initiate') 64-bit
        _STATISTICS_WRITING_DATE_UTC: 2026-01-16 13:07:54
        _STATISTICS_TAGS: BPS DURATION NUMBER_OF_FRAMES NUMBER_OF_BYTES
  Stream #0:1: Audio: aac (LC), 48000 Hz, stereo, fltp (default)
      Metadata:
        title           : Stereo
        BPS             : 193190
        DURATION        : 00:24:06.784000000
        NUMBER_OF_FRAMES: 67819
        NUMBER_OF_BYTES : 34938166
        _STATISTICS_WRITING_APP: mkvpropedit v94.0 ('Initiate') 64-bit
        _STATISTICS_WRITING_DATE_UTC: 2026-01-16 13:07:54
        _STATISTICS_TAGS: BPS DURATION NUMBER_OF_FRAMES NUMBER_OF_BYTES
Input #1, mov,mp4,m4a,3gp,3g2,mj2, from 'F:\Convert\files\[DC] Make Heroine ga Oosugiru - 07_Telegram.mp4':
  Metadata:
    major_brand     : isom
    minor_version   : 512
    compatible_brands: isomiso2avc1mp41
    encoder         : Lavf60.16.100
  Duration: 00:24:06.74, start: 0.000000, bitrate: 3764 kb/s
  Stream #1:0[0x1](und): Video: h264 (High) (avc1 / 0x31637661), yuv420p(tv, bt709, progressive), 1920x1080 [SAR 1:1 DAR 16:9], 3616 kb/s, 23.98 fps, 23.98 tbr, 24k tbn (default)
      Metadata:
        handler_name    : VideoHandler
        vendor_id       : [0][0][0][0]
        encoder         : Lavc60.31.102 h264_qsv
  Stream #1:1[0x2](und): Audio: aac (HE-AACv2) (mp4a / 0x6134706D), 48000 Hz, stereo, fltp, 144 kb/s (default)
      Metadata:
        handler_name    : SoundHandler
        vendor_id       : [0][0][0][0]
Stream mapping:
  Stream #0:0 (hevc) -> settb:default
  Stream #1:0 (h264) -> settb:default
  psnr:default -> Stream #0:0 (wrapped_avframe)
  Stream #0:1 -> #0:1 (aac (native) -> pcm_s16le (native))
Output #0, null, to 'pipe:':
  Metadata:
    encoder         : Lavf61.7.100
  Stream #0:0: Video: wrapped_avframe, yuv420p10le(tv, bt709, progressive), 1920x1080 [SAR 1:1 DAR 16:9], q=2-31, 200 kb/s, 23.98 fps, 23.98 tbn
      Metadata:
        encoder         : Lavc61.19.100 wrapped_avframe
  Stream #0:1: Audio: pcm_s16le, 48000 Hz, stereo, s16, 1536 kb/s (default)
      Metadata:
        title           : Stereo
        BPS             : 193190
        DURATION        : 00:24:06.784000000
        NUMBER_OF_FRAMES: 67819
        NUMBER_OF_BYTES : 34938166
        _STATISTICS_WRITING_APP: mkvpropedit v94.0 ('Initiate') 64-bit
        _STATISTICS_WRITING_DATE_UTC: 2026-01-16 13:07:54
        _STATISTICS_TAGS: BPS DURATION NUMBER_OF_FRAMES NUMBER_OF_BYTES
        encoder         : Lavc61.19.100 pcm_s16le
frame=  124 fps=0.0 q=-0.0 size=N/A time=00:00:05.17 bitrate=N/A speed=  10x    frame=  327 fps=318 q=-0.0 size=N/A time=00:00:13.63 bitrate=N/A speed=13.3x    frame=  532 fps=345 q=-0.0 size=N/A time=00:00:22.18 bitrate=N/A speed=14.4x    frame=  735 fps=355 q=-0.0 size=N/A time=00:00:30.65 bitrate=N/A speed=14.8x    frame=  918 fps=356 q=-0.0 size=N/A time=00:00:38.28 bitrate=N/A speed=14.8x    frame= 1066 fps=345 q=-0.0 size=N/A time=00:00:44.46 bitrate=N/A speed=14.4x    frame= 1224 fps=338 q=-0.0 size=N/A time=00:00:51.05 bitrate=N/A speed=14.1x    frame= 1394 fps=338 q=-0.0 size=N/A time=00:00:58.14 bitrate=N/A speed=14.1x    frame= 1543 fps=333 q=-0.0 size=N/A time=00:01:04.35 bitrate=N/A speed=13.9x    frame= 1693 fps=329 q=-0.0 size=N/A time=00:01:10.61 bitrate=N/A speed=13.7x    frame= 1862 fps=328 q=-0.0 size=N/A time=00:01:17.66 bitrate=N/A speed=13.7x    frame= 2032 fps=328 q=-0.0 size=N/A time=00:01:24.75 bitrate=N/A speed=13.7x    frame= 2138 fps=319 q=-0.0 size=N/A time=00:01:29.17 bitrate=N/A speed=13.3x    frame= 2301 fps=319 q=-0.0 size=N/A time=00:01:35.97 bitrate=N/A speed=13.3x    frame= 2448 fps=317 q=-0.0 size=N/A time=00:01:42.10 bitrate=N/A speed=13.2x    frame= 2584 fps=313 q=-0.0 size=N/A time=00:01:47.77 bitrate=N/A speed=13.1x    frame= 2764 fps=315 q=-0.0 size=N/A time=00:01:55.28 bitrate=N/A speed=13.1x    frame= 2941 fps=317 q=-0.0 size=N/A time=00:02:02.66 bitrate=N/A speed=13.2x    frame= 3144 fps=321 q=-0.0 size=N/A time=00:02:11.13 bitrate=N/A speed=13.4x    frame= 3356 fps=325 q=-0.0 size=N/A time=00:02:19.97 bitrate=N/A speed=13.6x    frame= 3566 fps=329 q=-0.0 size=N/A time=00:02:28.73 bitrate=N/A speed=13.7x    frame= 3768 fps=332 q=-0.0 size=N/A time=00:02:37.15 bitrate=N/A speed=13.9x    frame= 3980 fps=336 q=-0.0 size=N/A time=00:02:45.99 bitrate=N/A speed=  14x    frame= 4190 fps=338 q=-0.0 size=N/A time=00:02:54.75 bitrate=N/A speed=14.1x    frame= 4396 fps=341 q=-0.0 size=N/A time=00:03:03.34 bitrate=N/A speed=14.2x    frame= 4598 fps=343 q=-0.0 size=N/A time=00:03:11.77 bitrate=N/A speed=14.3x    frame= 4804 fps=345 q=-0.0 size=N/A time=00:03:20.36 bitrate=N/A speed=14.4x    frame= 5011 fps=347 q=-0.0 size=N/A time=00:03:29.00 bitrate=N/A speed=14.5x    frame= 5219 fps=349 q=-0.0 size=N/A time=00:03:37.67 bitrate=N/A speed=14.6x    frame= 5422 fps=350 q=-0.0 size=N/A time=00:03:46.14 bitrate=N/A speed=14.6x    frame= 5630 fps=352 q=-0.0 size=N/A time=00:03:54.81 bitrate=N/A speed=14.7x    frame= 5833 fps=354 q=-0.0 size=N/A time=00:04:03.28 bitrate=N/A speed=14.7x    frame= 6045 fps=355 q=-0.0 size=N/A time=00:04:12.12 bitrate=N/A speed=14.8x    frame= 6248 fps=356 q=-0.0 size=N/A time=00:04:20.59 bitrate=N/A speed=14.9x    frame= 6449 fps=357 q=-0.0 size=N/A time=00:04:28.97 bitrate=N/A speed=14.9x    frame= 6654 fps=359 q=-0.0 size=N/A time=00:04:37.52 bitrate=N/A speed=  15x    frame= 6871 fps=360 q=-0.0 size=N/A time=00:04:46.57 bitrate=N/A speed=  15x    frame= 7073 fps=361 q=-0.0 size=N/A time=00:04:55.00 bitrate=N/A speed=  15x    frame= 7272 fps=361 q=-0.0 size=N/A time=00:05:03.30 bitrate=N/A speed=15.1x    frame= 7473 fps=362 q=-0.0 size=N/A time=00:05:11.68 bitrate=N/A speed=15.1x    frame= 7661 fps=362 q=-0.0 size=N/A time=00:05:19.52 bitrate=N/A speed=15.1x    frame= 7862 fps=363 q=-0.0 size=N/A time=00:05:27.91 bitrate=N/A speed=15.1x    frame= 8055 fps=363 q=-0.0 size=N/A time=00:05:35.96 bitrate=N/A speed=15.1x    frame= 8257 fps=364 q=-0.0 size=N/A time=00:05:44.38 bitrate=N/A speed=15.2x    frame= 8463 fps=364 q=-0.0 size=N/A time=00:05:52.97 bitrate=N/A speed=15.2x    frame= 8666 fps=365 q=-0.0 size=N/A time=00:06:01.44 bitrate=N/A speed=15.2x    frame= 8867 fps=366 q=-0.0 size=N/A time=00:06:09.82 bitrate=N/A speed=15.3x    frame= 9074 fps=366 q=-0.0 size=N/A time=00:06:18.46 bitrate=N/A speed=15.3x    frame= 9286 fps=367 q=-0.0 size=N/A time=00:06:27.30 bitrate=N/A speed=15.3x    frame= 9487 fps=368 q=-0.0 size=N/A time=00:06:35.68 bitrate=N/A speed=15.3x    frame= 9691 fps=368 q=-0.0 size=N/A time=00:06:44.19 bitrate=N/A speed=15.4x    frame= 9893 fps=369 q=-0.0 size=N/A time=00:06:52.62 bitrate=N/A speed=15.4x    frame=10101 fps=369 q=-0.0 size=N/A time=00:07:01.29 bitrate=N/A speed=15.4x    frame=10301 fps=370 q=-0.0 size=N/A time=00:07:09.63 bitrate=N/A speed=15.4x    frame=10504 fps=370 q=-0.0 size=N/A time=00:07:18.10 bitrate=N/A speed=15.4x    frame=10701 fps=370 q=-0.0 size=N/A time=00:07:26.32 bitrate=N/A speed=15.5x    frame=10905 fps=371 q=-0.0 size=N/A time=00:07:34.82 bitrate=N/A speed=15.5x    frame=11112 fps=371 q=-0.0 size=N/A time=00:07:43.46 bitrate=N/A speed=15.5x    frame=11294 fps=371 q=-0.0 size=N/A time=00:07:51.05 bitrate=N/A speed=15.5x    frame=11496 fps=371 q=-0.0 size=N/A time=00:07:59.47 bitrate=N/A speed=15.5x    frame=11701 fps=372 q=-0.0 size=N/A time=00:08:08.02 bitrate=N/A speed=15.5x    frame=11897 fps=372 q=-0.0 size=N/A time=00:08:16.20 bitrate=N/A speed=15.5x    frame=12109 fps=373 q=-0.0 size=N/A time=00:08:25.04 bitrate=N/A speed=15.5x    frame=12307 fps=373 q=-0.0 size=N/A time=00:08:33.30 bitrate=N/A speed=15.5x    frame=12513 fps=373 q=-0.0 size=N/A time=00:08:41.89 bitrate=N/A speed=15.6x    frame=12716 fps=373 q=-0.0 size=N/A time=00:08:50.36 bitrate=N/A speed=15.6x    frame=12921 fps=374 q=-0.0 size=N/A time=00:08:58.91 bitrate=N/A speed=15.6x    frame=13121 fps=374 q=-0.0 size=N/A time=00:09:07.25 bitrate=N/A speed=15.6x    frame=13322 fps=374 q=-0.0 size=N/A time=00:09:15.63 bitrate=N/A speed=15.6x    frame=13518 fps=374 q=-0.0 size=N/A time=00:09:23.81 bitrate=N/A speed=15.6x    frame=13711 fps=374 q=-0.0 size=N/A time=00:09:31.86 bitrate=N/A speed=15.6x    frame=13907 fps=375 q=-0.0 size=N/A time=00:09:40.03 bitrate=N/A speed=15.6x    frame=14090 fps=374 q=-0.0 size=N/A time=00:09:47.67 bitrate=N/A speed=15.6x    frame=14280 fps=374 q=-0.0 size=N/A time=00:09:55.59 bitrate=N/A speed=15.6x    frame=14474 fps=374 q=-0.0 size=N/A time=00:10:03.68 bitrate=N/A speed=15.6x    frame=14674 fps=374 q=-0.0 size=N/A time=00:10:12.02 bitrate=N/A speed=15.6x    frame=14879 fps=375 q=-0.0 size=N/A time=00:10:20.57 bitrate=N/A speed=15.6x    frame=15065 fps=374 q=-0.0 size=N/A time=00:10:28.33 bitrate=N/A speed=15.6x    frame=15241 fps=374 q=-0.0 size=N/A time=00:10:35.67 bitrate=N/A speed=15.6x    frame=15438 fps=374 q=-0.0 size=N/A time=00:10:43.89 bitrate=N/A speed=15.6x    frame=15637 fps=374 q=-0.0 size=N/A time=00:10:52.19 bitrate=N/A speed=15.6x    frame=15847 fps=375 q=-0.0 size=N/A time=00:11:00.95 bitrate=N/A speed=15.6x    frame=16050 fps=375 q=-0.0 size=N/A time=00:11:09.41 bitrate=N/A speed=15.6x    frame=16233 fps=375 q=-0.0 size=N/A time=00:11:17.05 bitrate=N/A speed=15.6x    frame=16438 fps=375 q=-0.0 size=N/A time=00:11:25.60 bitrate=N/A speed=15.6x    frame=16641 fps=375 q=-0.0 size=N/A time=00:11:34.06 bitrate=N/A speed=15.6x    frame=16846 fps=375 q=-0.0 size=N/A time=00:11:42.61 bitrate=N/A speed=15.7x    frame=17049 fps=375 q=-0.0 size=N/A time=00:11:51.08 bitrate=N/A speed=15.7x    frame=17254 fps=376 q=-0.0 size=N/A time=00:11:59.63 bitrate=N/A speed=15.7x    frame=17459 fps=376 q=-0.0 size=N/A time=00:12:08.18 bitrate=N/A speed=15.7x    frame=17650 fps=376 q=-0.0 size=N/A time=00:12:16.15 bitrate=N/A speed=15.7x    frame=17844 fps=376 q=-0.0 size=N/A time=00:12:24.24 bitrate=N/A speed=15.7x    frame=18050 fps=376 q=-0.0 size=N/A time=00:12:32.83 bitrate=N/A speed=15.7x    frame=18238 fps=376 q=-0.0 size=N/A time=00:12:40.67 bitrate=N/A speed=15.7x    frame=18435 fps=376 q=-0.0 size=N/A time=00:12:48.89 bitrate=N/A speed=15.7x    frame=18645 fps=376 q=-0.0 size=N/A time=00:12:57.65 bitrate=N/A speed=15.7x    frame=18850 fps=377 q=-0.0 size=N/A time=00:13:06.20 bitrate=N/A speed=15.7x    frame=19055 fps=377 q=-0.0 size=N/A time=00:13:14.75 bitrate=N/A speed=15.7x    frame=19266 fps=377 q=-0.0 size=N/A time=00:13:23.55 bitrate=N/A speed=15.7x    frame=19478 fps=377 q=-0.0 size=N/A time=00:13:32.39 bitrate=N/A speed=15.7x    frame=19682 fps=378 q=-0.0 size=N/A time=00:13:40.90 bitrate=N/A speed=15.8x    frame=19886 fps=378 q=-0.0 size=N/A time=00:13:49.41 bitrate=N/A speed=15.8x    frame=20091 fps=378 q=-0.0 size=N/A time=00:13:57.96 bitrate=N/A speed=15.8x    frame=20308 fps=378 q=-0.0 size=N/A time=00:14:07.01 bitrate=N/A speed=15.8x    frame=20492 fps=378 q=-0.0 size=N/A time=00:14:14.68 bitrate=N/A speed=15.8x    frame=20671 fps=378 q=-0.0 size=N/A time=00:14:22.15 bitrate=N/A speed=15.8x    frame=20877 fps=378 q=-0.0 size=N/A time=00:14:30.74 bitrate=N/A speed=15.8x    frame=21093 fps=379 q=-0.0 size=N/A time=00:14:39.75 bitrate=N/A speed=15.8x    frame=21295 fps=379 q=-0.0 size=N/A time=00:14:48.17 bitrate=N/A speed=15.8x    frame=21481 fps=379 q=-0.0 size=N/A time=00:14:55.93 bitrate=N/A speed=15.8x    frame=21689 fps=379 q=-0.0 size=N/A time=00:15:04.61 bitrate=N/A speed=15.8x    frame=21901 fps=379 q=-0.0 size=N/A time=00:15:13.45 bitrate=N/A speed=15.8x    frame=22107 fps=379 q=-0.0 size=N/A time=00:15:22.04 bitrate=N/A speed=15.8x    frame=22315 fps=379 q=-0.0 size=N/A time=00:15:30.72 bitrate=N/A speed=15.8x    frame=22532 fps=380 q=-0.0 size=N/A time=00:15:39.77 bitrate=N/A speed=15.8x    frame=22734 fps=380 q=-0.0 size=N/A time=00:15:48.19 bitrate=N/A speed=15.8x    frame=22927 fps=380 q=-0.0 size=N/A time=00:15:56.24 bitrate=N/A speed=15.8x    frame=23136 fps=380 q=-0.0 size=N/A time=00:16:04.96 bitrate=N/A speed=15.9x    frame=23339 fps=380 q=-0.0 size=N/A time=00:16:13.43 bitrate=N/A speed=15.9x    frame=23549 fps=380 q=-0.0 size=N/A time=00:16:22.18 bitrate=N/A speed=15.9x    frame=23748 fps=380 q=-0.0 size=N/A time=00:16:30.48 bitrate=N/A speed=15.9x    frame=23955 fps=381 q=-0.0 size=N/A time=00:16:39.12 bitrate=N/A speed=15.9x    frame=24153 fps=381 q=-0.0 size=N/A time=00:16:47.38 bitrate=N/A speed=15.9x    frame=24360 fps=381 q=-0.0 size=N/A time=00:16:56.01 bitrate=N/A speed=15.9x    frame=24564 fps=381 q=-0.0 size=N/A time=00:17:04.52 bitrate=N/A speed=15.9x    frame=24766 fps=381 q=-0.0 size=N/A time=00:17:12.94 bitrate=N/A speed=15.9x    frame=24973 fps=381 q=-0.0 size=N/A time=00:17:21.58 bitrate=N/A speed=15.9x    frame=25185 fps=381 q=-0.0 size=N/A time=00:17:30.42 bitrate=N/A speed=15.9x    frame=25383 fps=381 q=-0.0 size=N/A time=00:17:38.68 bitrate=N/A speed=15.9x    frame=25581 fps=381 q=-0.0 size=N/A time=00:17:46.94 bitrate=N/A speed=15.9x    frame=25790 fps=382 q=-0.0 size=N/A time=00:17:55.65 bitrate=N/A speed=15.9x    frame=26000 fps=382 q=-0.0 size=N/A time=00:18:04.41 bitrate=N/A speed=15.9x    frame=26196 fps=382 q=-0.0 size=N/A time=00:18:12.59 bitrate=N/A speed=15.9x    frame=26407 fps=382 q=-0.0 size=N/A time=00:18:21.39 bitrate=N/A speed=15.9x    frame=26615 fps=382 q=-0.0 size=N/A time=00:18:30.06 bitrate=N/A speed=15.9x    frame=26825 fps=382 q=-0.0 size=N/A time=00:18:38.82 bitrate=N/A speed=15.9x    frame=27008 fps=382 q=-0.0 size=N/A time=00:18:46.45 bitrate=N/A speed=15.9x    frame=27194 fps=382 q=-0.0 size=N/A time=00:18:54.21 bitrate=N/A speed=15.9x    frame=27400 fps=382 q=-0.0 size=N/A time=00:19:02.80 bitrate=N/A speed=15.9x    frame=27593 fps=382 q=-0.0 size=N/A time=00:19:10.85 bitrate=N/A speed=15.9x    frame=27792 fps=382 q=-0.0 size=N/A time=00:19:19.15 bitrate=N/A speed=15.9x    frame=27990 fps=382 q=-0.0 size=N/A time=00:19:27.41 bitrate=N/A speed=15.9x    frame=28195 fps=382 q=-0.0 size=N/A time=00:19:35.96 bitrate=N/A speed=15.9x    frame=28395 fps=382 q=-0.0 size=N/A time=00:19:44.30 bitrate=N/A speed=15.9x    frame=28593 fps=382 q=-0.0 size=N/A time=00:19:52.56 bitrate=N/A speed=15.9x    frame=28783 fps=382 q=-0.0 size=N/A time=00:20:00.49 bitrate=N/A speed=15.9x    frame=28952 fps=382 q=-0.0 size=N/A time=00:20:07.53 bitrate=N/A speed=15.9x    frame=29130 fps=381 q=-0.0 size=N/A time=00:20:14.96 bitrate=N/A speed=15.9x    frame=29307 fps=381 q=-0.0 size=N/A time=00:20:22.34 bitrate=N/A speed=15.9x    frame=29476 fps=381 q=-0.0 size=N/A time=00:20:29.39 bitrate=N/A speed=15.9x    frame=29659 fps=381 q=-0.0 size=N/A time=00:20:37.02 bitrate=N/A speed=15.9x    frame=29837 fps=380 q=-0.0 size=N/A time=00:20:44.45 bitrate=N/A speed=15.9x    frame=30003 fps=380 q=-0.0 size=N/A time=00:20:51.37 bitrate=N/A speed=15.8x    frame=30183 fps=380 q=-0.0 size=N/A time=00:20:58.88 bitrate=N/A speed=15.8x    frame=30372 fps=380 q=-0.0 size=N/A time=00:21:06.76 bitrate=N/A speed=15.8x    frame=30582 fps=380 q=-0.0 size=N/A time=00:21:15.52 bitrate=N/A speed=15.8x    frame=30780 fps=380 q=-0.0 size=N/A time=00:21:23.78 bitrate=N/A speed=15.8x    frame=30984 fps=380 q=-0.0 size=N/A time=00:21:32.29 bitrate=N/A speed=15.8x    frame=31190 fps=380 q=-0.0 size=N/A time=00:21:40.88 bitrate=N/A speed=15.9x    frame=31394 fps=380 q=-0.0 size=N/A time=00:21:49.39 bitrate=N/A speed=15.9x    frame=31589 fps=380 q=-0.0 size=N/A time=00:21:57.52 bitrate=N/A speed=15.9x    frame=31780 fps=380 q=-0.0 size=N/A time=00:22:05.49 bitrate=N/A speed=15.9x    frame=31967 fps=380 q=-0.0 size=N/A time=00:22:13.29 bitrate=N/A speed=15.8x    frame=32161 fps=380 q=-0.0 size=N/A time=00:22:21.38 bitrate=N/A speed=15.8x    frame=32364 fps=380 q=-0.0 size=N/A time=00:22:29.84 bitrate=N/A speed=15.8x    frame=32571 fps=380 q=-0.0 size=N/A time=00:22:38.48 bitrate=N/A speed=15.9x    frame=32731 fps=380 q=-0.0 size=N/A time=00:22:45.15 bitrate=N/A speed=15.8x    frame=32896 fps=379 q=-0.0 size=N/A time=00:22:52.03 bitrate=N/A speed=15.8x    frame=33082 fps=379 q=-0.0 size=N/A time=00:22:59.79 bitrate=N/A speed=15.8x    frame=33266 fps=379 q=-0.0 size=N/A time=00:23:07.46 bitrate=N/A speed=15.8x    frame=33448 fps=379 q=-0.0 size=N/A time=00:23:15.06 bitrate=N/A speed=15.8x    frame=33592 fps=378 q=-0.0 size=N/A time=00:23:21.06 bitrate=N/A speed=15.8x    frame=33741 fps=378 q=-0.0 size=N/A time=00:23:27.28 bitrate=N/A speed=15.8x    frame=33864 fps=377 q=-0.0 size=N/A time=00:23:32.41 bitrate=N/A speed=15.7x    frame=34019 fps=377 q=-0.0 size=N/A time=00:23:38.87 bitrate=N/A speed=15.7x    frame=34183 fps=376 q=-0.0 size=N/A time=00:23:45.71 bitrate=N/A speed=15.7x    frame=34327 fps=376 q=-0.0 size=N/A time=00:23:51.72 bitrate=N/A speed=15.7x    frame=34460 fps=375 q=-0.0 size=N/A time=00:23:57.26 bitrate=N/A speed=15.6x    frame=34653 fps=375 q=-0.0 size=N/A time=00:24:05.31 bitrate=N/A speed=15.6x    [Parsed_psnr_16 @ 000001ab93a45c40] PSNR y:49.513723 u:50.707685 v:50.772006 average:49.885219 min:37.730011 max:inf
[out#0/null @ 000001ab86521d00] video:14903KiB audio:271276KiB subtitle:0KiB other streams:0KiB global headers:0KiB muxing overhead: unknown
frame=34683 fps=375 q=-0.0 Lsize=N/A time=00:24:06.57 bitrate=N/A speed=15.6x    
